<svg xmlns="http://www.w3.org/2000/svg" width="600" height="80">
<rect width="100%" height="100%" fill="#000000"/>
<polyline points="10.0,70.0 30.0,70.0 50.0,10.0 70.0,65.71428571428571 90.0,70.0 110.0,70.0 130.0,70.0 150.0,70.0 170.0,35.714285714285715 190.0,31.428571428571423 210.0,70.0 230.0,70.0 250.0,70.0 270.0,70.0 290.0,70.0 310.0,70.0 330.0,70.0 350.0,70.0 370.0,70.0 390.0,70.0 410.0,70.0 430.0,70.0 450.0,70.0 470.0,70.0 490.0,70.0 510.0,70.0 530.0,70.0 550.0,70.0 570.0,70.0 590.0,40.0" fill="none" stroke="#00d4ff" stroke-width="2"/>
<line x1="10" y1="74" x2="590" y2="74" stroke="#222" stroke-width="1"/>
<circle cx="590.0" cy="40.0" r="3" fill="#FFD700"/>
</svg>