<svg xmlns="http://www.w3.org/2000/svg" width="600" height="80">
<rect width="100%" height="100%" fill="#000000"/>
<polyline points="10.0,70.0 30.0,70.0 50.0,70.0 70.0,70.0 90.0,70.0 110.0,70.0 130.0,70.0 150.0,70.0 170.0,70.0 190.0,70.0 210.0,70.0 230.0,70.0 250.0,70.0 270.0,70.0 290.0,70.0 310.0,70.0 330.0,70.0 350.0,70.0 370.0,70.0 390.0,70.0 410.0,70.0 430.0,70.0 450.0,70.0 470.0,70.0 490.0,70.0 510.0,70.0 530.0,70.0 550.0,70.0 570.0,70.0 590.0,70.0" fill="none" stroke="#58a6ff" stroke-width="3" stroke-linecap="round" stroke-linejoin="round"/>
<line x1="10" y1="76" x2="590" y2="76" stroke="#161b22" stroke-width="1"/>
<circle cx="590.0" cy="70.0" r="4" fill="#58a6ff" stroke="#000000" stroke-width="0.8"/>
</svg>